<?xml version="1.0" encoding="UTF-8" standalone="no"?>
<!-- Created with Inkscape (http://www.inkscape.org/) -->

<svg
   xmlns:dc="http://purl.org/dc/elements/1.1/"
   xmlns:cc="http://creativecommons.org/ns#"
   xmlns:rdf="http://www.w3.org/1999/02/22-rdf-syntax-ns#"
   xmlns:svg="http://www.w3.org/2000/svg"
   xmlns="http://www.w3.org/2000/svg"
   xmlns:xlink="http://www.w3.org/1999/xlink"
   xmlns:sodipodi="http://sodipodi.sourceforge.net/DTD/sodipodi-0.dtd"
   xmlns:inkscape="http://www.inkscape.org/namespaces/inkscape"
   width="210mm"
   height="297mm"
   viewBox="0 0 210 297"
   version="1.1"
   id="svg8"
   inkscape:version="0.92.3 (2405546, 2018-03-11)"
   sodipodi:docname="main.svg">
  <defs
     id="defs2">
    <linearGradient
       inkscape:collect="always"
       id="linearGradient931">
      <stop
         style="stop-color:#4d4d4d;stop-opacity:1;"
         offset="0"
         id="stop927" />
      <stop
         style="stop-color:#4d4d4d;stop-opacity:0;"
         offset="1"
         id="stop929" />
    </linearGradient>
    <linearGradient
       inkscape:collect="always"
       id="linearGradient882">
      <stop
         style="stop-color:#000000;stop-opacity:1"
         offset="0"
         id="stop878" />
      <stop
         style="stop-color:#128ab2;stop-opacity:0;"
         offset="1"
         id="stop880" />
    </linearGradient>
    <clipPath
       id="clipPath8-0-2-8-62">
      <path
         d="M 76,2 V 48 H 54 V 71 H 35.580737 c -0.07818,0.665694 -0.141485,1.332869 -0.205737,2 -1.151162,12.530963 1.036422,24.087546 6.0625,33.96875 L 43.125,110 c 1.011403,1.81678 2.191241,3.52297 3.4375,5.1875 1.244725,1.66248 1.685716,2.58262 2.46875,3.6875 C 62.319911,133.81083 82.129473,141 105,141 155.64836,141 198.63299,118.56201 217.65625,68.15625 231.15302,69.54122 244.09968,66.080358 250,54.5625 240.60137,49.138835 228.52163,50.877226 221.5625,54.375 L 240,2 168,48 H 145 V 2 Z"
         id="path10-6-3-9-5"
         inkscape:connector-curvature="0" />
    </clipPath>
    <clipPath
       id="clipPath8937">
      <path
         d="M 76,2 V 48 H 54 V 71 H 35.580737 c -0.07818,0.665694 -0.141485,1.332869 -0.205737,2 -1.151162,12.530963 1.036422,24.087546 6.0625,33.96875 L 43.125,110 c 1.011403,1.81678 2.191241,3.52297 3.4375,5.1875 1.244725,1.66248 1.685716,2.58262 2.46875,3.6875 C 62.319911,133.81083 82.129473,141 105,141 155.64836,141 198.63299,118.56201 217.65625,68.15625 231.15302,69.54122 244.09968,66.080358 250,54.5625 240.60137,49.138835 228.52163,50.877226 221.5625,54.375 L 240,2 168,48 H 145 V 2 Z"
         id="path8935"
         inkscape:connector-curvature="0" />
    </clipPath>
    <clipPath
       id="clipPath8941">
      <path
         d="M 76,2 V 48 H 54 V 71 H 35.580737 c -0.07818,0.665694 -0.141485,1.332869 -0.205737,2 -1.151162,12.530963 1.036422,24.087546 6.0625,33.96875 L 43.125,110 c 1.011403,1.81678 2.191241,3.52297 3.4375,5.1875 1.244725,1.66248 1.685716,2.58262 2.46875,3.6875 C 62.319911,133.81083 82.129473,141 105,141 155.64836,141 198.63299,118.56201 217.65625,68.15625 231.15302,69.54122 244.09968,66.080358 250,54.5625 240.60137,49.138835 228.52163,50.877226 221.5625,54.375 L 240,2 168,48 H 145 V 2 Z"
         id="path8939"
         inkscape:connector-curvature="0" />
    </clipPath>
    <clipPath
       id="clipPath8945">
      <path
         d="M 76,2 V 48 H 54 V 71 H 35.580737 c -0.07818,0.665694 -0.141485,1.332869 -0.205737,2 -1.151162,12.530963 1.036422,24.087546 6.0625,33.96875 L 43.125,110 c 1.011403,1.81678 2.191241,3.52297 3.4375,5.1875 1.244725,1.66248 1.685716,2.58262 2.46875,3.6875 C 62.319911,133.81083 82.129473,141 105,141 155.64836,141 198.63299,118.56201 217.65625,68.15625 231.15302,69.54122 244.09968,66.080358 250,54.5625 240.60137,49.138835 228.52163,50.877226 221.5625,54.375 L 240,2 168,48 H 145 V 2 Z"
         id="path8943"
         inkscape:connector-curvature="0" />
    </clipPath>
    <clipPath
       id="clipPath8949">
      <path
         d="M 76,2 V 48 H 54 V 71 H 35.580737 c -0.07818,0.665694 -0.141485,1.332869 -0.205737,2 -1.151162,12.530963 1.036422,24.087546 6.0625,33.96875 L 43.125,110 c 1.011403,1.81678 2.191241,3.52297 3.4375,5.1875 1.244725,1.66248 1.685716,2.58262 2.46875,3.6875 C 62.319911,133.81083 82.129473,141 105,141 155.64836,141 198.63299,118.56201 217.65625,68.15625 231.15302,69.54122 244.09968,66.080358 250,54.5625 240.60137,49.138835 228.52163,50.877226 221.5625,54.375 L 240,2 168,48 H 145 V 2 Z"
         id="path8947"
         inkscape:connector-curvature="0" />
    </clipPath>
    <linearGradient
       inkscape:collect="always"
       xlink:href="#linearGradient882"
       id="linearGradient884"
       x1="436.71591"
       y1="601.6814"
       x2="159.12535"
       y2="356.21436"
       gradientUnits="userSpaceOnUse"
       gradientTransform="matrix(0.26458333,0,0,0.26458333,-10.621321,-43.1411)" />
    <linearGradient
       inkscape:collect="always"
       xlink:href="#linearGradient882"
       id="linearGradient888"
       gradientUnits="userSpaceOnUse"
       x1="436.71591"
       y1="601.6814"
       x2="159.12535"
       y2="356.21436"
       gradientTransform="matrix(-0.26458333,0,0,-0.26458333,133.7985,160.05547)" />
    <radialGradient
       inkscape:collect="always"
       xlink:href="#linearGradient931"
       id="radialGradient933"
       cx="96.929375"
       cy="61.63147"
       fx="96.929375"
       fy="61.63147"
       r="61.988091"
       gradientTransform="matrix(1.2976297,-1.1944622,0.86063085,0.93496484,-81.891004,119.78669)"
       gradientUnits="userSpaceOnUse" />
  </defs>
  <sodipodi:namedview
     id="base"
     pagecolor="#ffffff"
     bordercolor="#666666"
     borderopacity="1.0"
     inkscape:pageopacity="0.0"
     inkscape:pageshadow="2"
     inkscape:zoom="0.49497475"
     inkscape:cx="116.69338"
     inkscape:cy="913.41834"
     inkscape:document-units="mm"
     inkscape:current-layer="layer1"
     showgrid="false"
     inkscape:window-width="1366"
     inkscape:window-height="703"
     inkscape:window-x="0"
     inkscape:window-y="0"
     inkscape:window-maximized="1"
     inkscape:snap-global="false" />
  <metadata
     id="metadata5">
    <rdf:RDF>
      <cc:Work
         rdf:about="">
        <dc:format>image/svg+xml</dc:format>
        <dc:type
           rdf:resource="http://purl.org/dc/dcmitype/StillImage" />
        <dc:title />
      </cc:Work>
    </rdf:RDF>
  </metadata>
  <g
     inkscape:label="Layer 1"
     inkscape:groupmode="layer"
     id="layer1">
    <rect
       style="opacity:0.536;vector-effect:none;fill:url(#radialGradient933);fill-opacity:1;fill-rule:evenodd;stroke:none;stroke-width:0.93366635;stroke-linecap:butt;stroke-linejoin:miter;stroke-miterlimit:4;stroke-dasharray:none;stroke-dashoffset:0;stroke-opacity:1"
       id="rect890"
       width="123.97618"
       height="112.93786"
       x="34.94128"
       y="5.162539"
       rx="27.970236"
       ry="27.970236"
       inkscape:export-xdpi="75"
       inkscape:export-ydpi="75" />
    <rect
       ry="27.970236"
       rx="27.970236"
       y="9.7681599"
       x="39.997059"
       height="103.72662"
       width="113.86465"
       id="rect919"
       style="opacity:0.596;vector-effect:none;fill:#ffffff;fill-opacity:1;fill-rule:evenodd;stroke:none;stroke-width:0.93366635;stroke-linecap:butt;stroke-linejoin:miter;stroke-miterlimit:4;stroke-dasharray:none;stroke-dashoffset:0;stroke-opacity:1"
       inkscape:export-xdpi="75"
       inkscape:export-ydpi="75" />
    <g
       id="g917"
       transform="translate(35.340782,3.1742868)"
       inkscape:export-xdpi="75"
       inkscape:export-ydpi="75">
      <path
         inkscape:export-ydpi="75"
         inkscape:export-xdpi="75"
         inkscape:connector-curvature="0"
         id="path858"
         d="m 22.948723,64.988216 -9.161199,1.72289 C 28.235159,104.93317 62.902848,109.9466 95.003075,100.88256 l -1.23749,5.83385 18.430395,-10.918704 -18.553905,-10.70322 1.30002,5.37641 c -6.14629,1.13823 -14.043347,1.31163 -19.685297,-0.10123 l 0.0944,4.80637 c -2.34785,0.85941 -4.79821,1.5152 -7.28741,1.93012 l -4.23333,-7.58611 c -0.22772,0.0295 -0.45899,-8e-5 -0.6873,0.0295 -0.50334,0.0385 -1.00233,0.0858 -1.52549,0.0858 -0.75472,0 -1.50994,-0.0563 -2.23242,-0.13022 l -4.2137,7.60935 c -2.51523,-0.40811 -4.96838,-1.06793 -7.29464,-1.94923 l 0.11524,-6.39134 0.0475,-2.28772 c -1.35261,-0.66069 -2.64558,-1.38514 -3.903639,-2.23242 l -7.452257,4.49688 c -1.918211,-1.60405 -3.709818,-3.39762 -5.313889,-5.34592 l 0.02946,-0.0475 -0.02946,-0.0295 4.445725,-7.39335 c -0.416692,-0.62577 -0.806633,-1.27814 -1.179258,-1.94562 0,-0.0295 -0.02945,-0.0296 -0.02945,-0.0475 -0.36967,-0.62399 -0.720558,-1.25361 -1.03818,-1.89446 l -8.631515,0.15658 v -0.0294 h -0.05633 c -0.878562,-2.3403 -1.527572,-4.76276 -1.932181,-7.18561 z"
         style="opacity:1;fill:url(#linearGradient884);fill-opacity:1;stroke:none;stroke-width:3;stroke-linecap:round;stroke-miterlimit:4;stroke-dasharray:none;stroke-dashoffset:0;stroke-opacity:1" />
      <path
         inkscape:export-ydpi="75"
         inkscape:export-xdpi="75"
         inkscape:connector-curvature="0"
         style="opacity:1;fill:url(#linearGradient888);fill-opacity:1;stroke:none;stroke-width:3;stroke-linecap:round;stroke-miterlimit:4;stroke-dasharray:none;stroke-dashoffset:0;stroke-opacity:1"
         d="m 100.22845,51.926166 9.1612,-1.7229 C 94.942025,11.981206 60.274338,6.9677657 28.174105,16.031816 l 1.23749,-5.83386 -18.4304,10.91872 18.55391,10.70322 -1.30002,-5.37642 c 6.146295,-1.13823 14.043348,-1.31163 19.685303,0.10124 l -0.0944,-4.80638 c 2.34785,-0.85941 4.79821,-1.51519 7.28741,-1.93011 l 4.23333,7.5861 c 0.22772,-0.0295 0.45899,8e-5 0.6873,-0.0295 0.50335,-0.0385 1.00233,-0.0858 1.52549,-0.0858 0.75473,0 1.50994,0.0563 2.23242,0.13023 l 4.2137,-7.60936 c 2.51523,0.40811 4.96838,1.06794 7.29464,1.94924 l -0.11524,6.39134 -0.0475,2.28771 c 1.35262,0.66069 2.64558,1.38514 3.90364,2.23242 l 7.452257,-4.49688 c 1.91821,1.60405 3.70982,3.39763 5.31389,5.34593 l -0.0295,0.0475 0.0295,0.0295 -4.44573,7.39334 c 0.4167,0.62577 0.80664,1.27814 1.17926,1.94562 0,0.0295 0.0295,0.0296 0.0295,0.0475 0.36967,0.624 0.72056,1.25361 1.03818,1.89446 l 8.63152,-0.15658 v 0.0295 h 0.0563 c 0.87856,2.3403 1.52757,4.76276 1.932175,7.18561 z"
         id="path886" />
      <g
         inkscape:export-ydpi="75"
         inkscape:export-xdpi="75"
         transform="translate(-28.917005,27.671894)"
         id="g9178">
        <path
           style="fill:#394d54;stroke-width:0.20425099"
           id="path14-4-4-1-2"
           d="m 92.239452,27.251089 h 4.670402 v 4.774316 h 2.361502 c 1.090514,0 2.212184,-0.194274 3.244944,-0.544217 0.50745,-0.172065 1.07704,-0.411523 1.57761,-0.712669 -0.65929,-0.860788 -0.99588,-1.947686 -1.09499,-3.019045 -0.13455,-1.457183 0.15939,-3.353888 1.14564,-4.494384 l 0.49094,-0.567848 0.58501,0.470271 c 1.47293,1.183379 2.71166,2.836913 2.93001,4.721915 1.77354,-0.521684 3.85576,-0.398292 5.41905,0.503959 l 0.64136,0.37006 -0.33758,0.658855 c -1.32209,2.580379 -4.08605,3.379687 -6.7883,3.238247 -4.04359,10.071289 -12.846938,14.839368 -23.520961,14.839368 -5.514553,0 -10.574044,-2.061451 -13.455152,-6.954119 -0.168916,-0.303926 -0.313568,-0.621724 -0.466982,-0.933863 -0.973897,-2.153664 -1.297361,-4.512981 -1.077928,-6.870322 l 0.06585,-0.706115 h 3.993706 v -4.774309 h 4.67041 v -4.670402 h 9.34081 v -4.670409 h 5.604581 v 9.340811"
           inkscape:connector-curvature="0" />
        <g
           transform="matrix(0.204251,0,0,0.204251,62.114963,17.910286)"
           id="g16-9-1-8-1-84"
           clip-path="url(#clipPath8-0-2-8-62)">
          <g
             id="g18-6-7-0-72">
            <g
               id="g20-6-4-8-4"
               transform="translate(0,-22.866)">
              <path
                 style="fill:#00acd3"
                 id="path22-7-3-5-0"
                 d="m 123.85901,3.8110794 h 19.81751 V 23.62805 h -19.81751 z"
                 inkscape:connector-curvature="0" />
              <path
                 style="fill:#20c2ef"
                 id="path24-1-7-0-62"
                 d="m 123.85901,26.676485 h 19.81751 v 19.818043 h -19.81751 z"
                 inkscape:connector-curvature="0" />
              <path
                 style="stroke:#394d54;stroke-width:1.55999994"
                 id="path26-0-8-6-9"
                 d="M 126.29235,21.976904 V 5.4611548 M 129.2642,21.976904 V 5.4611548 m 3.00184,16.5157492 V 5.4611548 m 3.00344,16.5157492 V 5.4611548 M 138.2724,21.976904 V 5.4611548 m 2.97131,16.5157492 V 5.4611548"
                 inkscape:connector-curvature="0" />
              <use
                 xlink:href="#path26-0-8-6-9"
                 id="use28-2-4-4-9"
                 transform="translate(0,22.866)"
                 x="0"
                 y="0"
                 width="100%"
                 height="100%" />
            </g>
            <use
               xlink:href="#g20-6-4-8-4"
               id="use30-8-3-6-0"
               transform="matrix(1,0,0,-1,22.866,4.572651)"
               x="0"
               y="0"
               width="100%"
               height="100%" />
          </g>
          <use
             xlink:href="#g18-6-7-0-72"
             id="use32-3-74-2-8"
             transform="translate(-91.464,45.732)"
             x="0"
             y="0"
             width="100%"
             height="100%" />
          <use
             xlink:href="#g18-6-7-0-72"
             id="use34-3-1-5-1"
             transform="translate(-45.732,45.732)"
             x="0"
             y="0"
             width="100%"
             height="100%" />
          <use
             xlink:href="#g18-6-7-0-72"
             id="use36-1-1-8-3"
             transform="translate(0,45.732)"
             x="0"
             y="0"
             width="100%"
             height="100%" />
        </g>
        <path
           transform="matrix(0.204251,0,0,0.204251,62.114963,17.910286)"
           style="fill:#17b5eb"
           id="path38-2-96-6-1"
           clip-path="url(#clipPath8-0-2-8-62)"
           d="m 221.57014,54.379649 c 1.53332,-11.915247 -7.38383,-21.274779 -12.91407,-25.71836 -6.37269,7.367765 -7.36295,26.677556 2.63498,34.807431 -5.57952,4.956117 -17.33731,9.448435 -29.37574,9.448435 L 34,72.917155 C 32.829255,85.484184 34,146 34,146 h 217 l -0.98657,-91.424 c -9.39863,-5.423665 -21.48419,-3.694326 -28.44332,-0.196552"
           inkscape:connector-curvature="0" />
        <path
           transform="matrix(0.204251,0,0,0.204251,62.114963,17.910286)"
           style="fill-opacity:0.17000002"
           id="path40-6-5-2-1"
           clip-path="url(#clipPath8-0-2-8-62)"
           d="m 34,89 v 57 H 251 V 89"
           inkscape:connector-curvature="0" />
        <path
           transform="matrix(0.204251,0,0,0.204251,62.114963,17.910286)"
           style="fill:#d4edf1"
           id="path42-3-3-8-0"
           clip-path="url(#clipPath8-0-2-8-62)"
           d="M 111.23736,140.88997 C 97.697741,134.4648 90.265707,125.73081 86.130611,116.19562 L 45,118 l 21,28 45.23736,-5.11003"
           inkscape:connector-curvature="0" />
        <path
           transform="matrix(0.204251,0,0,0.204251,62.114963,17.910286)"
           style="fill-opacity:0.08500001"
           id="path44-1-4-4-3"
           clip-path="url(#clipPath8-0-2-8-62)"
           d="m 222.5,53.9375 v 0.03125 c -20.86119,26.889144 -50.78312,50.37872 -82.90625,62.71875 -28.65478,11.00767 -53.638381,11.06039 -70.875,2.21875 -1.85607,-1.04832 -3.675701,-2.21152 -5.5,-3.3125 C 50.582097,106.76175 43.464274,92.152308 44.0625,72.90625 H 34 V 146 H 251 V 50 h -25 z"
           inkscape:connector-curvature="0" />
        <path
           style="fill:none;stroke:#394d54;stroke-width:0.69445342;stroke-linecap:round"
           id="path46-5-9-7-4"
           d="m 71.433911,41.814037 c 2.893252,0.158355 5.980971,0.186748 8.67429,-0.657435"
           inkscape:connector-curvature="0" />
        <path
           style="fill:#d4edf1;stroke-width:0.20425099"
           id="path48-4-6-2-03"
           d="m 82.983335,39.756824 c 0,0.616628 -0.499906,1.116534 -1.116535,1.116534 -0.616744,0 -1.116766,-0.499906 -1.116766,-1.116534 0,-0.616629 0.500022,-1.116759 1.116766,-1.116759 0.616629,0 1.116535,0.50013 1.116535,1.116759 z"
           inkscape:connector-curvature="0" />
        <path
           style="fill:#394d54;stroke-width:0.20425099"
           id="path50-5-5-4-9"
           d="m 82.156352,39.011006 c -0.09747,0.05635 -0.163427,0.161898 -0.163427,0.282658 0,0.180278 0.146142,0.326204 0.326413,0.326204 0.123508,0 0.23082,-0.06863 0.286278,-0.169888 0.03914,0.09441 0.06091,0.198111 0.06091,0.306844 0,0.441606 -0.358033,0.79964 -0.799748,0.79964 -0.441607,0 -0.799864,-0.358034 -0.799864,-0.79964 0,-0.441823 0.358257,-0.799964 0.799864,-0.799964 0.102163,0 0.199632,0.0193 0.289552,0.05412 z"
           inkscape:connector-curvature="0" />
        <path
           style="fill:#394d54;stroke-width:0.20425099"
           id="path52-3-1-0-1"
           d="m 64.571808,36.326032 h 51.946642 c -1.1311,-0.286927 -3.57869,-0.674495 -3.17504,-2.156836 -2.05664,2.379882 -7.01658,1.669614 -8.26833,0.496084 -1.39395,2.021742 -9.508808,1.253274 -10.074788,-0.321711 -1.747498,2.050837 -7.162505,2.050837 -8.910119,0 -0.566203,1.574985 -8.680945,2.343453 -10.075003,0.321711 -1.251745,1.17353 -6.211258,1.883798 -8.268109,-0.496084 0.403649,1.482341 -2.043943,1.869909 -3.175253,2.156836"
           inkscape:connector-curvature="0" />
      </g>
      <path
         inkscape:export-ydpi="75"
         inkscape:export-xdpi="75"
         inkscape:connector-curvature="0"
         style="fill:#333333;stroke-width:0.14055751"
         d="m 55.065908,19.765434 4.22134,7.594198 c 1.48577,-0.124203 2.97569,-0.05915 4.47684,0.04732 l 4.22163,-7.621998 c 0,0.0012 0.0295,0 0.0295,0 v -0.02957 c 2.51168,0.408115 4.92932,1.069972 7.25556,1.94949 l -0.12414,8.7106 c 1.32015,0.629622 2.64209,1.351512 3.86762,2.200862 l 7.452537,-4.46531 c 1.95008,1.571836 3.71001,3.36429 5.31407,5.31437 l -0.0295,0.0473 c 0,0 0.0295,0.0296 0.0295,0.0296 l -4.44963,7.39369 c 0.42821,0.61839 0.81505,1.2625 1.1791,1.92199 0,0 0,0 0,0.0295 0.3812,0.63465 0.73579,1.28468 1.0534,1.95364 l 8.66299,-0.15675 c 0,0.0295 0,0.0295 0.0295,0.0295 h 0.0295 c 0.88691,2.36411 1.55912,4.78086 1.973145,7.27185 l -7.621405,4.20565 c 0.12416,1.48578 0.0857,2.99551 0,4.46916 l 7.578225,4.22518 c -0.400415,2.4558 -1.038035,4.88112 -1.942085,7.26386 h -0.0474 c -10e-4,0 0,0.0295 0,0.0295 l -4.47714,-0.0858 -4.18201,-0.0562 c -0.30934,0.65684 -0.61276,1.31573 -0.99042,1.96932 -0.25433,0.43975 -0.54267,0.84491 -0.82509,1.25776 -0.13309,0.20701 -0.24842,0.42526 -0.38891,0.62902 l 4.46916,7.43658 c 0,0.0295 -0.0295,0.0295 -0.0295,0.0295 v 0.0295 c -1.60378,1.95007 -3.36428,3.74195 -5.31437,5.34572 l -7.452237,-4.49666 c -1.12675,0.78074 -2.33632,1.44733 -3.54942,2.06393 -0.10652,0.0562 -0.20996,0.11537 -0.31792,0.16857 l 0.0295,0.81328 0.15378,7.89259 c -2.34785,0.85941 -4.79832,1.51476 -7.28752,1.92968 v 0 c 0,3e-4 0,-3e-4 0,0 l -4.23316,-7.58591 c -0.22772,0.0295 -0.45898,0 -0.6873,0.0295 -0.50334,0.0385 -1.00224,0.0858 -1.52539,0.0858 -0.75473,0 -1.51003,-0.0562 -2.23252,-0.13013 l -4.21364,7.60929 c -2.51523,-0.40811 -4.96866,-1.0679 -7.29492,-1.9492 l 0.11537,-6.39144 0.0474,-2.28752 c -1.35261,-0.66069 -2.64528,-1.38554 -3.903335,-2.23282 l -7.452136,4.49696 c -1.91821,-1.60405 -3.710074,-3.39739 -5.314144,-5.34569 l 0.02957,-0.0474 c 0,0 -0.02957,-0.0295 -0.02957,-0.0295 l 4.445499,-7.39369 c -0.416692,-0.62577 -0.806472,-1.27817 -1.179098,-1.94565 0,-0.0295 -0.02957,-0.0295 -0.02957,-0.0474 -0.369669,-0.624 -0.720116,-1.25362 -1.037737,-1.89447 l -8.631629,0.1568 c 0,0 0,-0.0295 0,-0.0295 h -0.0562 c -0.887499,-2.36411 -1.541963,-4.81222 -1.945642,-7.25972 l 4.461174,-2.50784 h 0.124202 l 3.085411,-1.70965 c -0.0562,-0.75294 -0.124202,-1.47424 -0.124202,-2.22896 v 0 c 0,-0.75442 0.05915,-1.4778 0.124202,-2.23252 l -7.61342,-4.21335 c 0.408115,-2.51582 1.072042,-4.96894 1.953335,-7.2955 l 8.67866,0.15675 c 0.660673,-1.35211 1.384338,-2.67139 2.201458,-3.89899 l -1.961319,-3.27053 -2.50784,-4.17017 c 0,0 0,0 0,0 v 0 c 0.760336,-0.92388 1.567694,-1.80695 2.405513,-2.65335 0.04732,-0.0473 0.08577,-0.0976 0.130125,-0.14195 0.0016,-0.002 0,0 0,0 0.88839,-0.888388 1.816113,-1.728869 2.775184,-2.515822 l 4.402323,2.609872 0.02957,0.0473 3.046669,1.81611 c 1.205417,-0.82865 2.491577,-1.61147 3.839837,-2.24848 l -0.14195,-8.686651 c 2.33601,-0.902586 4.76902,-1.531616 7.26001,-1.945645 z m 6.26516,14.641872 c -5.31053,0.0562 -10.50039,1.89685 -14.70812,5.2431 -0.54533,0.4368 -1.0747,0.89017 -1.58011,1.37192 -0.0769,0.0769 -0.16561,0.14786 -0.24546,0.22476 -4.456741,4.36358 -7.228378,10.43267 -7.228378,17.17278 0,1.45798 0.153785,2.87839 0.400427,4.2648 0.05914,0.33212 0.118295,0.6654 0.19223,0.99427 0.08576,0.41019 0.2011,0.81328 0.30993,1.21459 0.130123,0.46193 0.272076,0.91885 0.42852,1.37192 0.109419,0.3185 0.221802,0.63465 0.345421,0.94753 0.215887,0.54948 0.458093,1.09037 0.715385,1.6233 0.10054,0.207 0.192227,0.4149 0.298691,0.6166 0.380022,0.73343 0.789319,1.45236 1.245935,2.14616 0,0 0,0.0295 0,0.0295 8.88e-4,8.9e-4 -5.91e-4,0 0,0 0.993673,1.50796 2.167743,2.91448 3.510089,4.18615 1.34323,1.27225 2.8571,2.40935 4.53185,3.37641 6.46449,3.73218 13.93447,4.12699 20.41554,1.71378 0.66953,-0.25137 1.32695,-0.53705 1.97313,-0.84521 0.0946,-0.0474 0.18336,-0.0858 0.27504,-0.13308 0.54061,-0.26616 1.06731,-0.55688 1.58781,-0.86532 0.18927,-0.11537 0.38209,-0.22772 0.57046,-0.34542 0.42527,-0.26912 0.8402,-0.55717 1.24978,-0.8529 0.25138,-0.18336 0.50305,-0.36582 0.74704,-0.55775 0.32648,-0.25434 0.64055,-0.52819 0.95551,-0.80174 0.30136,-0.26322 0.60005,-0.53116 0.8884,-0.80944 0.23659,-0.22772 0.46725,-0.46756 0.69615,-0.7077 0.3197,-0.33594 0.63554,-0.67604 0.93512,-1.02974 0.20998,-0.24842 0.40811,-0.50513 0.60892,-0.76241 0.26912,-0.3469 0.53854,-0.69527 0.7902,-1.05726 0.2159,-0.30904 0.41493,-0.63287 0.61721,-0.95523 0.22181,-0.35458 0.44863,-0.7071 0.6521,-1.07322 0.17153,-0.30816 0.32264,-0.62223 0.47997,-0.93512 0.20702,-0.41106 0.41491,-0.82214 0.59739,-1.24593 0.10064,-0.23363 0.18335,-0.46992 0.27503,-0.70414 0.2011,-0.51074 0.40309,-1.02118 0.57048,-1.54878 0.0474,-0.15969 0.0858,-0.3256 0.13309,-0.48766 0.18335,-0.61869 0.35252,-1.24091 0.48382,-1.87881 0.0295,-0.0562 0.0295,-0.12122 0.0295,-0.18336 0.14196,-0.71332 0.25435,-1.43816 0.33034,-2.17337 0,-0.0946 0.0295,-0.18334 0.0295,-0.27503 0.068,-0.71153 0.10345,-1.43017 0.1064,-2.15798 2.9e-4,-0.12415 0,-0.24842 0,-0.37351 0,-0.60596 -0.0295,-1.20631 -0.0858,-1.80015 -0.0295,-0.23362 -0.0562,-0.464 -0.0858,-0.69615 -0.0591,-0.46874 -0.10933,-0.9363 -0.18927,-1.39558 -0.0769,-0.45307 -0.18926,-0.90082 -0.29573,-1.34826 -0.0562,-0.25729 -0.10934,-0.52315 -0.18039,-0.77779 -0.19223,-0.71065 -0.41404,-1.41657 -0.67221,-2.10682 -0.25433,-0.68255 -0.54357,-1.35003 -0.8603,-2.00863 -0.14786,-0.30432 -0.31614,-0.59532 -0.47642,-0.89194 -0.18041,-0.33892 -0.35991,-0.6799 -0.55777,-1.01024 -0.20996,-0.34956 -0.43679,-0.68788 -0.66451,-1.0259 -0.16857,-0.25434 -0.33507,-0.50808 -0.51488,-0.75472 -0.27503,-0.37943 -0.57108,-0.74703 -0.86886,-1.10842 -0.14788,-0.1804 -0.29752,-0.36493 -0.45219,-0.54237 -0.32649,-0.37382 -0.66571,-0.7358 -1.01407,-1.08891 -0.15674,-0.15969 -0.31793,-0.31584 -0.47909,-0.4714 -0.35934,-0.34394 -0.72516,-0.67812 -1.10459,-0.9984 -0.17151,-0.14491 -0.35133,-0.28095 -0.52728,-0.42054 -0.40516,-0.32383 -0.81239,-0.64618 -1.23796,-0.94399 -0.0769,-0.0473 -0.14785,-0.10054 -0.22475,-0.14787 -2.78372,-1.89596 -5.98536,-3.22913 -9.44133,-3.82445 v -0.0296 c -1.42533,-0.24542 -2.85788,-0.36106 -4.28421,-0.34568 z"
         id="path30121-6" />
      <path
         inkscape:export-ydpi="75"
         inkscape:export-xdpi="75"
         inkscape:connector-curvature="0"
         id="path9132"
         d="m 38.2651,63.963986 c 0.07597,0.31959 0.161118,0.63654 0.246497,0.95136 0.130119,0.46194 0.272473,0.91895 0.428913,1.37201 0.109421,0.3185 0.221578,0.63435 0.345199,0.94723 0.21589,0.54948 0.457901,1.09075 0.715201,1.62368 0.100541,0.207 0.192219,0.4148 0.29869,0.6165 0.380022,0.73343 0.789311,1.45232 1.245921,2.14612 v 0.0294 c 0.993679,1.50797 2.168038,2.91464 3.510377,4.18631 1.34323,1.27225 2.85676,2.40896 4.53151,3.37602 6.46449,3.73218 13.93475,4.12732 20.41581,1.71411 0.66952,-0.25137 1.32682,-0.53726 1.973,-0.84542 0.0946,-0.0474 0.18324,-0.0855 0.27492,-0.13281 0.54061,-0.26616 1.06752,-0.55714 1.58802,-0.86558 0.18927,-0.11537 0.38213,-0.2275 0.5705,-0.3452 0.42527,-0.26912 0.83996,-0.55745 1.24954,-0.85318 0.25138,-0.18336 0.50325,-0.36566 0.74724,-0.55759 0.32648,-0.25434 0.64054,-0.52847 0.9555,-0.80202 0.30136,-0.26322 0.59997,-0.53097 0.88832,-0.80925 0.23659,-0.22772 0.46718,-0.46731 0.69608,-0.70745 0.3197,-0.33594 0.63576,-0.67621 0.93534,-1.02991 0.20998,-0.24842 0.40794,-0.50495 0.60875,-0.76223 0.26912,-0.3469 0.53847,-0.69531 0.79013,-1.0573 0.2159,-0.30904 0.41526,-0.63314 0.61754,-0.9555 0.22181,-0.35458 0.44868,-0.7072 0.65215,-1.07332 0.17153,-0.30816 0.32223,-0.62193 0.47956,-0.93482 0.20702,-0.41106 0.4149,-0.82213 0.59738,-1.24592 0.10064,-0.23363 0.18375,-0.47013 0.27544,-0.70435 0.20109,-0.51074 0.40311,-1.02114 0.5705,-1.54874 0.0474,-0.15969 0.0855,-0.32577 0.13281,-0.48783 0.12209,-0.41197 0.237,-0.82568 0.33952,-1.24437 z"
         style="opacity:0.3260002;fill:#118ab3;fill-opacity:1;stroke-width:0.14055751" />
    </g>
    <path
       style="opacity:0.156;fill:#ace5f8;fill-opacity:1;stroke:none;stroke-width:0.14055751"
       d="m 96.69982,37.581167 0.0031,5.19e-4 c -5.310532,0.0562 -10.500419,1.89684 -14.708148,5.243089 -0.545327,0.436801 -1.074338,0.89026 -1.579748,1.37201 -0.0769,0.0769 -0.165613,0.147892 -0.245462,0.224793 -4.456739,4.36358 -7.228498,10.432484 -7.228498,17.172596 0,1.457978 0.153842,2.878444 0.400492,4.264855 0.0591,0.332119 0.118295,0.665383 0.192235,0.994254 0.02003,0.09577 0.04542,0.190185 0.06821,0.285253 l 46.669509,-5.16e-4 c 0.0534,-0.217162 0.10501,-0.435369 0.15037,-0.655775 0.0295,-0.0562 0.0295,-0.121312 0.0295,-0.183452 0.14196,-0.713319 0.25423,-1.437782 0.33022,-2.172993 0,-0.0946 0.0295,-0.183746 0.0295,-0.275434 0.068,-0.711531 0.1035,-1.430198 0.10645,-2.158008 2.9e-4,-0.12415 0,-0.248015 0,-0.373105 0,-0.605959 -0.0295,-1.206566 -0.0858,-1.800407 -0.0295,-0.23362 -0.0562,-0.463931 -0.0858,-0.696079 -0.0591,-0.468742 -0.1092,-0.936501 -0.18913,-1.395781 -0.0769,-0.453072 -0.18964,-0.9008 -0.29611,-1.34824 -0.0562,-0.257288 -0.1093,-0.523089 -0.18035,-0.777729 -0.19223,-0.71065 -0.41414,-1.416598 -0.67231,-2.106848 -0.25433,-0.682551 -0.54317,-1.350063 -0.8599,-2.008664 -0.14786,-0.304318 -0.31617,-0.595315 -0.47645,-0.891934 -0.18041,-0.338921 -0.36025,-0.679934 -0.55811,-1.010274 -0.20996,-0.34956 -0.43684,-0.687758 -0.66456,-1.025779 -0.16857,-0.254339 -0.33489,-0.507834 -0.5147,-0.754476 -0.27503,-0.379428 -0.5709,-0.747069 -0.86868,-1.108458 -0.14788,-0.180401 -0.29749,-0.365162 -0.45216,-0.542602 -0.32649,-0.37382 -0.66605,-0.735714 -1.01441,-1.088824 -0.15674,-0.15969 -0.31789,-0.315728 -0.47904,-0.471289 -0.35934,-0.34394 -0.7249,-0.678109 -1.10433,-0.998387 -0.17151,-0.144912 -0.35167,-0.281056 -0.52762,-0.420648 -0.40516,-0.323829 -0.81208,-0.646319 -1.23765,-0.944128 -0.0769,-0.0473 -0.14789,-0.100465 -0.22479,-0.147794 -2.78372,-1.895959 -5.98531,-3.229253 -9.44128,-3.824573 v -0.02946 c -1.425334,-0.24542 -2.858169,-0.361096 -4.284498,-0.345716 z"
       id="path981"
       inkscape:connector-curvature="0" />
  </g>
</svg>
